<?xml version="1.0"?>
<svg xmlns="http://www.w3.org/2000/svg" xmlns:xlink="http://www.w3.org/1999/xlink" version="1.1" id="Capa_1" x="0px" y="0px" viewBox="0 0 512 512" style="enable-background:new 0 0 512 512;" xml:space="preserve" width="512px" height="512px" class=""><g><g>
	<g>
		<g>
			<path d="M160,96c-52.997,0.053-95.947,43.003-96,96v160h32v-96h128v96h32V192C255.947,139.003,212.997,96.053,160,96z M224,224     H96v-32c0-35.346,28.654-64,64-64c35.346,0,64,28.654,64,64V224z" data-original="#000000" class="active-path" fill="#000000"/>
			<path d="M283.552,378.176c-24.942,25.016-24.942,65.496,0,90.512l22.624,22.624c25.016,24.942,65.496,24.942,90.512,0     l113.136-113.136L396.688,265.04L283.552,378.176z M328.809,468.697c-0.003-0.003-0.006-0.006-0.009-0.009l-22.624-22.624     c-12.499-12.494-12.503-32.755-0.009-45.255c0.003-0.003,0.006-0.006,0.009-0.009l67.888,67.888     C361.57,481.187,341.308,481.191,328.809,468.697z M396.688,446.064L328.8,378.176l67.888-67.888l67.888,67.888L396.688,446.064z     " data-original="#000000" class="active-path" fill="#000000"/>
			<polygon points="0,0 0,512 128,512 128,480 32,480 32,32 480,32 480,304 512,304 512,0    " data-original="#000000" class="active-path" fill="#000000"/>
			<rect x="224" y="480" width="32" height="32" data-original="#000000" class="active-path" fill="#000000"/>
			<rect x="160" y="480" width="32" height="32" data-original="#000000" class="active-path" fill="#000000"/>
			<path d="M299.2,313.6l25.6-19.2c-7.953-10.604-5.804-25.647,4.8-33.6c4.154-3.116,9.207-4.8,14.4-4.8h24v-32h-24     c-30.928,0-56,25.072-56,56C287.958,292.123,291.892,303.926,299.2,313.6z" data-original="#000000" class="active-path" fill="#000000"/>
			<path d="M448,240v-32c0-44.183-35.817-80-80-80c-44.183,0-80,35.817-80,80h32c0-26.51,21.49-48,48-48c26.51,0,48,21.49,48,48v32     H448z" data-original="#000000" class="active-path" fill="#000000"/>
		</g>
	</g>
</g></g> </svg>
