<?xml version="1.0" standalone="no"?>
<!DOCTYPE svg PUBLIC "-//W3C//DTD SVG 20010904//EN"
 "http://www.w3.org/TR/2001/REC-SVG-20010904/DTD/svg10.dtd">
<svg version="1.0" xmlns="http://www.w3.org/2000/svg"
 width="150.000000pt" height="150.000000pt" viewBox="0 0 150.000000 150.000000"
 preserveAspectRatio="xMidYMid meet">
<metadata>
Created by potrace 1.15, written by Peter Selinger 2001-2017
</metadata>
<g transform="translate(0.000000,150.000000) scale(0.100000,-0.100000)"
fill="#000000" stroke="none">
<path d="M20 750 l0 -750 466 0 467 0 -41 44 c-54 59 -92 137 -99 202 l-6 54
-248 0 c-136 0 -254 3 -263 6 -21 8 -21 30 0 38 9 3 127 6 264 6 l248 0 7 32
c4 18 16 50 26 70 11 21 19 40 19 43 0 3 -123 5 -274 5 -151 0 -281 3 -290 6
-21 8 -21 30 0 38 9 3 150 6 313 6 285 0 299 1 316 20 43 47 170 100 242 100
l33 0 0 237 0 238 -177 177 -178 178 -412 0 -413 0 0 -750z m955 520 l170
-170 -173 0 -172 0 0 170 c0 94 1 170 3 170 1 0 79 -76 172 -170z m-51 -326
c21 -8 21 -30 0 -38 -20 -8 -608 -8 -628 0 -19 7 -21 30 -3 37 18 8 612 8 631
1z m0 -200 c21 -8 21 -30 0 -38 -20 -8 -608 -8 -628 0 -19 7 -21 30 -3 37 18
8 612 8 631 1z"/>
<path d="M1054 581 c-59 -27 -121 -86 -152 -145 -22 -43 -26 -64 -26 -136 0
-72 4 -93 26 -136 57 -108 149 -164 273 -164 124 0 216 56 273 164 22 43 26
64 26 136 0 72 -4 93 -26 136 -31 59 -93 118 -152 145 -57 26 -185 26 -242 0z
m221 -60 c80 -36 145 -136 145 -221 0 -85 -65 -185 -145 -221 -53 -24 -147
-24 -200 0 -80 36 -145 136 -145 221 0 85 65 185 145 221 53 24 147 24 200 0z"/>
<path d="M1222 444 l-40 -47 -51 43 -52 44 -37 -37 -36 -37 51 -52 52 -53 -49
-55 c-27 -30 -50 -58 -50 -62 0 -3 19 -21 42 -39 l41 -33 47 53 48 54 51 -43
52 -44 37 37 36 37 -51 52 -52 53 46 54 47 53 -40 34 c-21 18 -42 33 -46 34
-3 0 -24 -21 -46 -46z"/>
</g>
</svg>
