<?xml version="1.0" encoding="iso-8859-1"?>
<!-- Generator: Adobe Illustrator 18.0.0, SVG Export Plug-In . SVG Version: 6.00 Build 0)  -->
<!DOCTYPE svg PUBLIC "-//W3C//DTD SVG 1.1//EN" "http://www.w3.org/Graphics/SVG/1.1/DTD/svg11.dtd">
<svg version="1.1" id="Capa_1" xmlns="http://www.w3.org/2000/svg" xmlns:xlink="http://www.w3.org/1999/xlink" x="0px" y="0px"
	 viewBox="0 0 60 60" style="enable-background:new 0 0 60 60;" xml:space="preserve">
<g>
	<path d="M58.407,37.162l-2.849-2.85c-1.128-1.128-3.094-1.128-4.222,0l-15.391,15.39l-2.121,7.779L33.305,58
		c-0.388,0.388-0.389,1.014-0.006,1.405l-0.005,0.02l0.02-0.005c0.194,0.19,0.446,0.287,0.698,0.287
		c0.256,0,0.512-0.098,0.707-0.293l0.519-0.519l7.779-2.121l15.39-15.391c0.564-0.564,0.875-1.313,0.875-2.111
		S58.971,37.725,58.407,37.162z M38.254,50.222l10.243-10.243l4.243,4.243L42.497,54.465L38.254,50.222z M37.351,52.147l3.22,3.22
		l-4.427,1.207L37.351,52.147z M56.993,39.969l-2.839,2.839l-4.243-4.243l2.839-2.839c0.372-0.372,1.021-0.373,1.393,0l2.85,2.85
		c0.186,0.186,0.289,0.433,0.289,0.696C57.281,39.535,57.179,39.783,56.993,39.969z"/>
	<path d="M33.404,48H11.719c-0.552,0-1-0.447-1-1s0.448-1,1-1h23.686l12.314-12.314v-19.1L33.133,0H0.719v60h29.308l3.233-11.856
		L33.404,48z M31.719,2l14,14h-14V2z M11.719,14h10c0.552,0,1,0.447,1,1s-0.448,1-1,1h-10c-0.552,0-1-0.447-1-1S11.167,14,11.719,14
		z M11.719,22h25c0.552,0,1,0.447,1,1s-0.448,1-1,1h-25c-0.552,0-1-0.447-1-1S11.167,22,11.719,22z M11.719,30h25
		c0.552,0,1,0.447,1,1s-0.448,1-1,1h-25c-0.552,0-1-0.447-1-1S11.167,30,11.719,30z M11.719,38h25c0.552,0,1,0.447,1,1s-0.448,1-1,1
		h-25c-0.552,0-1-0.447-1-1S11.167,38,11.719,38z"/>
</g>
<g>
</g>
<g>
</g>
<g>
</g>
<g>
</g>
<g>
</g>
<g>
</g>
<g>
</g>
<g>
</g>
<g>
</g>
<g>
</g>
<g>
</g>
<g>
</g>
<g>
</g>
<g>
</g>
<g>
</g>
</svg>
