<?xml version="1.0" encoding="iso-8859-1"?>
<!-- Generator: Adobe Illustrator 18.0.0, SVG Export Plug-In . SVG Version: 6.00 Build 0)  -->
<!DOCTYPE svg PUBLIC "-//W3C//DTD SVG 1.1//EN" "http://www.w3.org/Graphics/SVG/1.1/DTD/svg11.dtd">
<svg version="1.1" id="Capa_1" xmlns="http://www.w3.org/2000/svg" xmlns:xlink="http://www.w3.org/1999/xlink" x="0px" y="0px"
	 viewBox="0 0 60 60" style="enable-background:new 0 0 60 60;" xml:space="preserve">
<g>
	<path d="M47,36c-6.617,0-12,5.383-12,12s5.383,12,12,12s12-5.383,12-12S53.617,36,47,36z M47,58c-5.514,0-10-4.486-10-10
		s4.486-10,10-10s10,4.486,10,10S52.514,58,47,58z"/>
	<path d="M53,47h-5v-5c0-0.552-0.447-1-1-1s-1,0.448-1,1v6c0,0.552,0.447,1,1,1h6c0.553,0,1-0.448,1-1S53.553,47,53,47z"/>
	<path d="M32,48H12c-0.552,0-1-0.447-1-1s0.448-1,1-1h20.149c0.293-2.184,1.054-4.217,2.184-6H12c-0.552,0-1-0.447-1-1s0.448-1,1-1
		h23.851c2.748-3.061,6.721-5,11.149-5c0.338,0,0.668,0.029,1,0.051V14.586L33.414,0H1v60h37.038C34.381,57.262,32,52.909,32,48z
		 M32,2l14,14H32V2z M12,14h10c0.552,0,1,0.447,1,1s-0.448,1-1,1H12c-0.552,0-1-0.447-1-1S11.448,14,12,14z M12,22h25
		c0.552,0,1,0.447,1,1s-0.448,1-1,1H12c-0.552,0-1-0.447-1-1S11.448,22,12,22z M12,30h25c0.552,0,1,0.447,1,1s-0.448,1-1,1H12
		c-0.552,0-1-0.447-1-1S11.448,30,12,30z"/>
</g>
<g>
</g>
<g>
</g>
<g>
</g>
<g>
</g>
<g>
</g>
<g>
</g>
<g>
</g>
<g>
</g>
<g>
</g>
<g>
</g>
<g>
</g>
<g>
</g>
<g>
</g>
<g>
</g>
<g>
</g>
</svg>
